HIERARCHY
ROOT Hips
{
	OFFSET 0.000000 0.000000 0.000000
	CHANNELS 6 Xposition Yposition Zposition Xrotation Yrotation Zrotation
	JOINT LeftUpLeg_virtual
	{
		OFFSET 0.000000 0.000000 0.000000
		CHANNELS 3 Xrotation Yrotation Zrotation
		JOINT LeftUpLeg
		{
			OFFSET 11.394100 -6.187798 -0.413800
			CHANNELS 3 Xrotation Yrotation Zrotation
			JOINT LeftLeg
			{
				OFFSET 0.430247 -32.302673 3.732800
				CHANNELS 3 Xrotation Yrotation Zrotation
				JOINT LeftFoot
				{
					OFFSET -0.430247 -48.264931 -6.423300
					CHANNELS 3 Xrotation Yrotation Zrotation
					JOINT LeftToeBase
					{
						OFFSET 4.230900 -16.068199 23.438400
						CHANNELS 3 Xrotation Yrotation Zrotation
						JOINT LeftToe_End
						{
							OFFSET 4.510700 0.695400 19.974600
							CHANNELS 3 Xrotation Yrotation Zrotation
							End Site
							{
								OFFSET 0 0 0
							}
						}
					}
				}
			}
		}
	}
	JOINT RightUpLeg_virtual
	{
		OFFSET 0.000000 0.000000 0.000000
		CHANNELS 3 Xrotation Yrotation Zrotation
		JOINT RightUpLeg
		{
			OFFSET -11.333700 -6.187798 -0.413800
			CHANNELS 3 Xrotation Yrotation Zrotation
			JOINT RightLeg
			{
				OFFSET -0.430392 -32.302628 3.733000
				CHANNELS 3 Xrotation Yrotation Zrotation
				JOINT RightFoot
				{
					OFFSET 0.430392 -48.264973 -6.423500
					CHANNELS 3 Xrotation Yrotation Zrotation
					JOINT RightToeBase
					{
						OFFSET -4.230900 -16.068199 23.438400
						CHANNELS 3 Xrotation Yrotation Zrotation
						JOINT RightToe_End
						{
							OFFSET -4.510700 0.695400 19.974600
							CHANNELS 3 Xrotation Yrotation Zrotation
							End Site
							{
								OFFSET 0 0 0
							}
						}
					}
				}
			}
		}
	}
	JOINT Spine_virtual
	{
		OFFSET 0.000000 0.000000 0.000000
		CHANNELS 3 Xrotation Yrotation Zrotation
		JOINT Spine
		{
			OFFSET -0.002400 12.777504 0.315300
			CHANNELS 3 Xrotation Yrotation Zrotation
			JOINT Spine1
			{
				OFFSET -0.002067 5.816869 0.032633
				CHANNELS 3 Xrotation Yrotation Zrotation
				JOINT Spine1_split
				{
					OFFSET -0.002067 5.816869 0.032633
					CHANNELS 3 Xrotation Yrotation Zrotation
					JOINT Spine2
					{
						OFFSET -0.002067 5.816869 0.032633
						CHANNELS 3 Xrotation Yrotation Zrotation
						JOINT Neck_virtual
						{
							OFFSET 0.000000 0.000000 0.000000
							CHANNELS 3 Xrotation Yrotation Zrotation
							JOINT Neck
							{
								OFFSET -0.003700 21.199493 -0.826900
								CHANNELS 3 Xrotation Yrotation Zrotation
								JOINT Head
								{
									OFFSET 0.000000 20.442200 4.834800
									CHANNELS 3 Xrotation Yrotation Zrotation
									JOINT HeadTop_End
									{
										OFFSET 0.000000 34.668396 4.968400
										CHANNELS 3 Xrotation Yrotation Zrotation
										End Site
										{
											OFFSET 0 0 0
										}
									}
								}
							}
						}
						JOINT LeftShoulder_virtual
						{
							OFFSET 0.000000 0.000000 0.000000
							CHANNELS 3 Xrotation Yrotation Zrotation
							JOINT LeftShoulder
							{
								OFFSET 3.288150 8.794197 -1.372250
								CHANNELS 3 Xrotation Yrotation Zrotation
								JOINT LeftShoulder_split
								{
									OFFSET 3.288150 8.794197 -1.372250
									CHANNELS 3 Xrotation Yrotation Zrotation
									JOINT LeftArm
									{
										OFFSET 11.953299 -2.279007 -0.146200
										CHANNELS 3 Xrotation Yrotation Zrotation
										JOINT LeftForeArm
										{
											OFFSET 18.448900 0.000000 0.000000
											CHANNELS 3 Xrotation Yrotation Zrotation
											JOINT LeftHand
											{
												OFFSET 29.527798 0.000000 0.000000
												CHANNELS 3 Xrotation Yrotation Zrotation
												End Site
												{
													OFFSET 0 0 0
												}
											}
										}
									}
								}
							}
						}
						JOINT RightShoulder_virtual
						{
							OFFSET 0.000000 0.000000 0.000000
							CHANNELS 3 Xrotation Yrotation Zrotation
							JOINT RightShoulder
							{
								OFFSET -3.249400 8.794197 -1.372250
								CHANNELS 3 Xrotation Yrotation Zrotation
								JOINT RightShoulder_split
								{
									OFFSET -3.249400 8.794197 -1.372250
									CHANNELS 3 Xrotation Yrotation Zrotation
									JOINT RightArm
									{
										OFFSET -11.953299 -2.279007 -0.146200
										CHANNELS 3 Xrotation Yrotation Zrotation
										JOINT RightForeArm
										{
											OFFSET -18.448900 0.000000 0.000000
											CHANNELS 3 Xrotation Yrotation Zrotation
											JOINT RightHand
											{
												OFFSET -29.527802 0.000000 0.000000
												CHANNELS 3 Xrotation Yrotation Zrotation
												End Site
												{
													OFFSET 0 0 0
												}
											}
										}
									}
								}
							}
						}
					}
				}
			}
		}
	}
}
MOTION
Frames: 4
Frame Time: 0.03333333
0.155387 84.777771 1.860374 0.000000 0.000000 0.000000 6.458309 -58.552896 8.495546 -41.581068 5.022658 27.064240 39.740926 -7.272423 -3.661305 -2.919678 -4.658442 -11.364065 2.029039 0.012325 -1.561303 0.000000 0.000000 0.000000 6.759389 -58.885615 9.084547 -42.339663 -3.867651 -28.307833 52.956376 5.554002 -5.709172 -15.253877 -3.012037 22.169252 7.674163 0.632382 -1.594462 0.000000 0.000000 0.000000 9.027490 -55.122085 10.199143 8.869575 -1.888812 -1.475918 8.619435 0.493758 -5.852676 -0.458617 -4.785518 1.068838 0.000000 0.000000 0.000000 8.462923 1.019479 -4.768047 -15.120292 27.004995 6.429398 -2.807278 36.084965 -6.853253 0.000000 0.000000 0.000000 8.518860 1.120372 -5.529353 -5.879425 -9.428706 -1.088150 -5.916002 1.089955 -4.144169 -19.201897 -1.175742 -33.062716 2.999944 -34.465244 7.948038 0.000000 0.000000 0.000000 9.051750 1.150869 -5.393403 -2.946159 11.459254 -3.297960 2.058043 -3.704551 8.339925 -43.506567 -19.886350 33.294232 -151.987979 66.807023 149.823874 0.000000 0.000000 0.000000 
0.311872 84.779045 1.145164 0.000000 0.000000 0.000000 6.902518 -58.335553 9.081076 -41.210899 5.263661 26.562560 38.973889 -6.633150 -4.071264 -3.317432 -4.586760 -11.161163 1.939246 -0.021930 -1.674361 0.000000 0.000000 0.000000 6.976290 -59.444618 9.598801 -42.563116 -3.992211 -28.604935 52.845614 5.597526 -5.604729 -14.815121 -2.838799 21.884911 7.016047 0.429572 -1.088123 0.000000 0.000000 0.000000 9.325688 -54.920001 10.644174 8.785447 -1.708930 -1.406353 8.507684 0.456871 -5.851942 -0.309806 -4.558250 1.478756 0.000000 0.000000 0.000000 8.546389 0.934124 -4.660959 -14.999748 27.522951 6.468489 -2.209676 35.613364 -6.825241 0.000000 0.000000 0.000000 8.564158 1.063274 -5.470163 -5.869028 -9.571293 -1.454119 -6.915480 0.680107 -4.721417 -18.793317 -1.157306 -33.782420 2.940216 -35.878065 7.623831 0.000000 0.000000 0.000000 8.925009 1.030808 -5.167354 -2.342532 12.128995 -2.907380 1.494172 -3.993998 6.642741 -43.477426 -22.317747 32.555748 -149.560406 68.104356 147.458648 0.000000 0.000000 0.000000 
0.440410 84.799988 0.278496 0.000000 0.000000 0.000000 7.106387 -58.687840 9.841620 -40.215228 6.071257 26.034248 37.895003 -5.599035 -4.625552 -3.705481 -4.448415 -11.287478 1.775600 -0.079778 -1.551578 0.000000 0.000000 0.000000 6.915643 -60.394411 10.269590 -43.303785 -4.106160 -29.262016 52.690309 6.081897 -5.444518 -14.042964 -2.361518 21.822895 6.120211 0.327265 -1.004053 0.000000 0.000000 0.000000 9.027797 -55.061925 10.862250 9.056570 -1.416890 -1.336819 8.604922 0.493675 -5.770308 0.025950 -3.870294 1.508778 0.000000 0.000000 0.000000 8.673078 0.983656 -4.566236 -15.782574 27.758020 7.512961 -1.063238 34.986811 -7.049422 0.000000 0.000000 0.000000 8.709482 1.058030 -5.339959 -5.897613 -10.069837 -1.903477 -7.532298 -0.275669 -5.182722 -19.028195 1.143170 -34.844500 3.277156 -37.876111 6.628964 0.000000 0.000000 0.000000 8.839635 0.990091 -4.888107 -1.481620 12.576765 -2.221742 0.468399 -3.317533 5.097420 -44.081600 -23.954706 30.110247 -142.068604 69.250393 140.558080 0.000000 0.000000 0.000000 
0.458004 84.876732 -0.321171 0.000000 0.000000 0.000000 7.153067 -59.814466 10.782525 -38.582926 7.411512 25.484534 36.896610 -4.215536 -5.190794 -4.126771 -4.144526 -11.659865 2.070407 -0.147911 -1.358099 0.000000 0.000000 0.000000 6.767554 -61.712590 11.091323 -44.416676 -3.951582 -30.144818 52.559750 6.867703 -5.193161 -13.053925 -1.592971 21.888149 5.119148 0.330349 -1.268845 0.000000 0.000000 0.000000 8.282042 -55.803984 10.951207 9.623635 -1.032919 -1.280878 8.889804 0.628573 -5.567182 0.257164 -3.057893 1.294003 0.000000 0.000000 0.000000 8.846044 1.170948 -4.432699 -17.100622 27.678227 9.088203 0.683173 34.391908 -7.666997 0.000000 0.000000 0.000000 8.932362 1.140660 -5.096475 -5.997952 -10.923211 -2.615321 -7.990462 -1.460443 -5.324923 -19.257923 5.188662 -35.852790 4.011247 -40.150659 5.140146 0.000000 0.000000 0.000000 8.880137 1.054845 -4.573799 -0.426239 12.958553 -1.421064 -0.760736 -2.406672 3.810335 -44.975423 -24.148786 26.014463 -130.122917 69.521285 129.666934 0.000000 0.000000 0.000000 
